<svg xmlns="http://www.w3.org/2000/svg" xmlns:xlink="http://www.w3.org/1999/xlink" version="1.1" x="0px" y="0px" viewBox="0 0 100 100" style="enable-background:new 0 0 100 100;" xml:space="preserve"><g><path d="M83.7,26.3c0-0.8-0.3-1.6-0.9-2.2L66,6.1c-0.6-0.7-1.5-1-2.4-1h-42c-2.9,0-5.3,2.4-5.3,5.3v79.3c0,2.9,2.4,5.3,5.3,5.3   h56.9c2.9,0,5.3-2.4,5.3-5.3L83.7,26.3z M47.6,71.3c0,3.3-2.5,4.9-5,4.9c-2.5,0-5-1.7-5-4.8c0-0.8,0.4-1.2,1.2-1.2h1.4   c0.8,0,1,0.3,1.1,1.1c0.1,0.8,0.5,1.5,1.4,1.5c0.8,0,1.3-0.5,1.3-1.6v-7.2H41c-0.8,0-1.2-0.4-1.2-1.2v-0.8c0-0.8,0.4-1.2,1.2-1.2   h5.4c0.8,0,1.2,0.4,1.2,1.2V71.3z M56.3,76.2c-2.1,0-4-0.9-4.8-1.5c-0.4-0.4-0.8-0.8-0.2-1.6l0.7-0.9c0.4-0.6,0.9-0.7,1.6-0.3   c0.5,0.3,1.4,0.9,2.7,0.9c1.1,0,1.6-0.5,1.6-1c0-2.1-6.6-1.8-6.6-6.5c0-2.8,2.3-4.6,5.4-4.6c1.7,0,3.3,0.6,4.1,1.1   c0.6,0.4,0.7,1,0.4,1.6l-0.5,1c-0.4,0.8-1,0.7-1.6,0.4c-0.7-0.3-1.4-0.7-2.4-0.7c-1.2,0-1.6,0.5-1.6,1c0,2.2,6.6,1.7,6.6,6.4   C61.6,74,59.7,76.2,56.3,76.2z M79.1,27.3h-11c-2.9,0-5.3-2.4-5.3-5.3V10.2c0-0.3,0.4-0.4,0.6-0.2l16,16.7   C79.5,26.9,79.4,27.3,79.1,27.3z"></path></g></svg>